<svg width="208" height="34" viewBox="0 0 208 34" fill="none" xmlns="http://www.w3.org/2000/svg">
<path fill-rule="evenodd" clip-rule="evenodd" d="M17.1295 30.4522C9.89089 30.4522 3.71225 23.8867 3.71225 16.7255C3.71225 9.59072 9.76157 2.89479 17.0776 2.89479C21.8867 2.89479 25.3497 5.22146 28.1682 8.86674H31.7096C30.6496 6.95346 29.5122 5.19603 27.7802 3.82545C24.807 1.42142 20.955 0 17.1295 0C7.95219 0 0.481445 7.57464 0.481445 16.7C0.481445 25.8508 8.05609 33.3481 17.1815 33.3481C20.9041 33.3481 24.5494 31.9786 27.4707 29.6774C29.3066 28.204 30.5987 26.2907 31.84 24.3255H28.2986C25.5055 27.9708 21.9387 30.4522 17.1295 30.4522ZM53.8389 13.0028C51.6161 10.1334 48.5909 8.32404 44.8428 8.32404C38.1214 8.32404 32.5894 13.7798 32.5894 20.5012C32.5894 27.2214 38.148 32.728 44.8428 32.728C48.7467 32.728 51.4602 31.0988 53.8389 28.1001V32.1842H56.7602V8.89216H53.8389V13.0028ZM44.6881 30.0388C39.5429 30.0388 35.4842 25.5668 35.4842 20.5266C35.4842 15.5107 39.5174 11.0132 44.6881 11.0132C49.8321 11.0132 53.8389 15.5118 53.8389 20.5266C53.8389 25.5668 49.8056 30.0388 44.6881 30.0388ZM60.3016 32.1842H63.4307V0.670921H60.3016V32.1842ZM75.2442 28.487L67.3335 8.89216H64.2309L73.7188 32.1842H76.8723L86.3348 8.89216H83.2841L75.2442 28.487ZM87.6269 32.1842H90.7549V8.89216H87.6269V32.1842ZM87.6269 5.89348H90.7549V0.670921H87.6269V5.89348ZM104.224 8.32293C101.276 8.32293 99.1828 9.87478 97.2441 11.9428V8.89216H94.3482V32.1842H97.4243V17.991C97.3989 14.2429 100.5 11.0121 104.275 11.0121C109.005 11.0121 111.383 15.1228 111.383 19.3627V32.1853H114.278V19.3627C114.279 13.3134 110.739 8.32293 104.224 8.32293ZM143.311 0.670921L129.092 18.7415V0.670921H126.016V32.1842H129.092V23.5242L133.126 18.5094L143.388 32.1842H147.293L135.09 16.0269L147.293 0.670921H143.311ZM148.43 32.1842H151.481V0.670921H148.43V32.1842ZM176.738 14.7602C174.618 10.8043 170.378 8.32293 165.904 8.32293C159.236 8.32293 153.599 13.8815 153.599 20.5509C153.599 27.2711 159.287 32.7269 165.959 32.7269C169.136 32.7269 172.267 31.4602 174.566 29.2629C175.963 27.9443 176.789 26.2896 177.538 24.5576H174.256C172.6 27.7895 169.679 30.0377 165.903 30.0377C163.604 30.0377 161.355 29.107 159.65 27.5298C157.89 25.9282 157.115 23.9619 156.778 21.6363H178.263C178.264 19.2068 177.927 16.8802 176.738 14.7602ZM156.883 18.9482C157.816 14.5801 161.252 11.0121 165.959 11.0121C169.913 11.0121 174.153 13.4427 175.084 18.9482H156.883ZM180.539 32.1842H183.614V8.89216H180.539V32.1842ZM180.539 5.99738H183.614V0.670921H180.539V5.99738ZM197.136 8.32293C194.135 8.32293 192.042 9.87478 190.076 11.9428V8.89216H187.13V32.1842H190.232V17.991C190.207 14.2175 193.387 11.0121 197.186 11.0121C201.892 11.0121 204.375 15.1228 204.375 19.3627V32.1853H207.269V19.3627C207.269 13.3134 203.675 8.32293 197.136 8.32293Z" fill="white"/>
</svg>
