<svg width="195" height="32" viewBox="0 0 195 32" fill="none" xmlns="http://www.w3.org/2000/svg">
<g clip-path="url(#clip0_202_285)">
<path fill-rule="evenodd" clip-rule="evenodd" d="M0.481445 0.90175L3.41361 4.20848V28.4106L1.24042 31.5774L14.5499 31.5978L12.1509 28.6839L11.9018 19.9679L24.735 20.0375C28.6248 18.7425 32.6235 15.9815 32.8156 10.3996C32.7543 4.99032 29.4517 1.52086 25.6174 0.830605L0.481445 0.90175ZM11.4263 2.44953V17.9977L21.2725 18.0689C23.5129 16.2623 25.2113 14.8787 25.1433 10.5411C25.1112 7.00433 24.3647 3.92011 21.0687 2.45029L11.4263 2.44953ZM38.9751 0.725402L41.9072 4.03289V28.2351L39.7341 31.4033L53.0428 31.4222L50.6438 28.5083L50.3947 19.7923H50.4481L64.198 31.5206L75.6089 31.4275L65.1944 22.4193H56.5001L53.4358 19.8089L63.2279 19.8619C67.1177 18.5669 71.1157 15.8059 71.3085 10.224C71.2479 4.81548 67.9454 1.34527 64.1103 0.65577L38.9751 0.725402ZM49.9192 2.27318V17.8214L59.7654 17.8925C62.0065 16.0859 63.7042 14.7024 63.6362 10.364C63.6041 6.82798 62.8576 3.74301 59.5616 2.27318H49.9192ZM86.5947 0.690586H98.0706L113.009 28.4106C113.655 30.551 115.589 30.2869 116.88 31.2254H102.416L104.589 30.5457L104.454 28.4818L100.719 22.5011L88.0206 22.5722L85.3046 28.3418C85.214 28.998 84.512 29.496 85.0329 30.3111L86.0519 31.2958L79.8048 31.155L82.5215 30.3111L92.7738 8.71181V7.23365L88.4421 1.45502L86.5947 0.690586ZM88.8234 20.5976L94.0975 10.6123L99.5885 20.5416L88.8234 20.5976ZM164.196 0.751135H175.671L190.611 28.4712C191.257 30.6116 193.191 30.3475 194.481 31.286H180.017L182.19 30.6048L182.054 28.5408L178.32 22.5616L165.622 22.6328L162.906 28.4008C162.815 29.0585 162.114 29.5565 162.634 30.3717L163.653 31.3563L157.406 31.2156L160.123 30.3717L170.375 8.77235V7.29345L166.044 1.51557L164.196 0.751135ZM166.425 20.6589L171.699 10.6736L177.191 20.6013L166.425 20.6589ZM120.849 0.402222L141.292 0.514994C147.875 2.05672 152.064 6.07868 153.362 13.0948L153.308 18.5669C152.107 24.8186 148.175 29.1319 141.238 31.3155L120.74 31.373L120.737 30.7107C123.853 30.4754 124.102 30.1196 124.11 28.2699V3.33506C124.075 1.96741 123.802 1.11594 120.794 1.02209L120.849 0.402222ZM132.469 2.53581L132.449 29.5134C135.146 29.5225 137.485 29.7753 138.806 29.1009C141.8 27.7333 143.191 25.633 143.318 23.6598L143.247 7.73016C143.247 5.1818 140.482 3.38274 138.885 2.91425C137.743 2.49116 135.465 2.47375 132.469 2.53581Z" fill="white" stroke="white" stroke-width="1.02419" stroke-miterlimit="2.613"/>
</g>
<defs>
<clipPath id="clip0_202_285">
<rect width="194" height="32" fill="white" transform="translate(0.481445)"/>
</clipPath>
</defs>
</svg>
