<svg width="157" height="34" viewBox="0 0 157 34" fill="none" xmlns="http://www.w3.org/2000/svg">
<path d="M141.794 10.2934L141.502 10.3855C140.369 8.04204 138.749 6.17651 136.644 4.78893C134.571 3.40133 131.963 2.70752 128.822 2.70752C127.073 2.70752 125.405 3.06211 123.818 3.77129C122.23 4.44972 120.838 5.42104 119.639 6.68525C118.473 7.91865 117.534 9.41416 116.821 11.1718C116.109 12.9294 115.753 14.872 115.753 16.9997C115.753 19.1273 116.109 21.0699 116.821 22.8275C117.534 24.5851 118.473 26.096 119.639 27.3603C120.838 28.5937 122.23 29.5496 123.818 30.228C125.405 30.9063 127.073 31.2455 128.822 31.2455C131.931 31.2455 134.457 30.783 136.401 29.8579C138.377 28.9021 140.045 27.4528 141.405 25.5102L141.697 25.6024L141.6 28.5626C140.855 29.3026 139.996 29.9656 139.025 30.5514C138.053 31.1065 137 31.5844 135.867 31.9853C134.766 32.3553 133.616 32.6328 132.417 32.8178C131.219 33.0339 130.021 33.1419 128.822 33.1419C126.328 33.1419 123.948 32.7564 121.68 31.9855C119.413 31.2146 117.421 30.1354 115.704 28.7478C113.988 27.3294 112.627 25.6335 111.623 23.66C110.619 21.6558 110.117 19.4356 110.117 16.9996C110.117 14.5636 110.619 12.3589 111.623 10.3855C112.627 8.38116 113.988 6.6698 115.704 5.25142C117.421 3.83298 119.413 2.75374 121.68 2.01369C123.948 1.24279 126.328 0.85734 128.822 0.85734C130.021 0.85734 131.219 0.949845 132.417 1.13486C133.616 1.31987 134.766 1.61281 135.867 2.01369C137 2.38372 138.053 2.86167 139.025 3.44757C139.996 4.0026 140.855 4.65013 141.6 5.39017L141.794 10.2934ZM34.7334 19.1277C34.3774 19.2817 34.0373 19.4822 33.7132 19.7293C33.3891 19.9758 33.2271 20.315 33.2271 20.7469V26.4359C31.6724 28.5636 29.6804 30.2133 27.2512 31.385C24.822 32.5568 22.1337 33.1427 19.1862 33.1427C16.6923 33.1427 14.3117 32.7572 12.0444 31.9863C9.77718 31.2154 7.78523 30.1362 6.06858 28.7486C4.35195 27.3302 2.99159 25.6343 1.9875 23.6608C0.983462 21.6566 0.481445 19.4364 0.481445 17.0004C0.481445 14.5644 0.983462 12.3597 1.9875 10.3863C2.99159 8.38192 4.35195 6.67056 6.06858 5.25218C7.78523 3.83374 9.77718 2.75451 12.0444 2.01449C14.3117 1.24356 16.6923 0.858098 19.1862 0.858098C20.3847 0.858098 21.5831 0.950603 22.7815 1.13561C23.9799 1.32062 25.1297 1.61357 26.231 2.01445C27.3646 2.38447 28.4172 2.86243 29.3889 3.44832C30.3606 4.00335 31.2189 4.65089 31.9639 5.39093L32.1585 10.2937L31.867 10.3859C30.7334 8.04238 29.114 6.17683 27.0087 4.78925C24.9357 3.40165 22.3284 2.70784 19.1866 2.70784C17.4376 2.70784 15.7696 3.06245 14.1825 3.77165C12.5954 4.45005 11.2027 5.42136 10.0042 6.68557C8.8382 7.919 7.89893 9.41452 7.18642 11.1721C6.4738 12.9297 6.1175 14.8724 6.1175 17C6.1175 19.0968 6.45759 21.024 7.13779 22.7816C7.85038 24.5392 8.78968 26.0501 9.95569 27.3144C11.1541 28.5478 12.5468 29.5191 14.1339 30.2283C15.721 30.9067 17.4052 31.2459 19.1866 31.2459C22.5551 31.2459 25.4378 30.6292 27.8346 29.3958V20.7465C27.8346 20.315 27.6565 19.9758 27.3005 19.7289C26.9764 19.4824 26.6525 19.2819 26.3287 19.1273L26.3731 18.8963C26.5349 18.9245 26.8264 18.9553 27.2477 18.9885C27.6689 19.0167 28.1062 19.0475 28.5595 19.0807H32.7379C33.1266 19.0525 33.4991 19.0218 33.8554 18.9885C34.2115 18.9603 34.4867 18.9296 34.681 18.8963L34.7334 19.1277ZM69.9234 1.82908C69.5993 1.98307 69.2754 2.18359 68.9517 2.43065C68.6277 2.67714 68.4496 3.13967 68.4176 3.81822C68.388 4.55827 68.3557 5.49875 68.3208 6.63967C68.3208 7.74976 68.306 9.01399 68.2763 10.4323C68.2763 11.8508 68.2615 13.3926 68.2319 15.0577V20.2381C68.2023 22.2423 67.9431 23.9537 67.4543 25.3721C66.9684 26.7905 66.3206 27.9776 65.5109 28.9335C64.7336 29.8895 63.8591 30.6449 62.8874 31.2C61.9481 31.755 61.0088 32.1713 60.0695 32.4488C59.1626 32.7573 58.3043 32.9423 57.4946 33.0038C56.6848 33.0963 56.0532 33.1426 55.5998 33.1426C53.7536 33.1426 51.9722 32.9113 50.2555 32.4488C48.5389 32.0173 47.0328 31.3081 45.7372 30.3211C44.4417 29.3344 43.4052 28.0547 42.6279 26.4822C41.8505 24.9096 41.4618 22.9978 41.4618 20.7468V15.5203V10.7099C41.4618 9.22975 41.447 7.90384 41.4174 6.73214C41.4174 5.52954 41.4026 4.55823 41.373 3.81818C41.3434 3.13979 41.1653 2.67726 40.8389 2.43061C40.5148 2.18411 40.1909 1.98359 39.8672 1.82904L39.9116 1.59806C40.0734 1.62626 40.3326 1.65699 40.6893 1.69025C41.078 1.71845 41.4666 1.74918 41.8553 1.78243C42.2766 1.78243 42.6814 1.79653 43.0699 1.82473H44.8189C45.2076 1.79653 45.6125 1.78243 46.0335 1.78243C46.4548 1.75423 46.8434 1.7235 47.1995 1.69025C47.5882 1.66204 47.8634 1.63132 48.0251 1.59806L48.0696 1.82904C47.7135 1.98303 47.3734 2.18355 47.0493 2.43061C46.7578 2.6771 46.5958 3.13963 46.5632 3.81818C46.5336 4.55823 46.5013 5.52954 46.4664 6.73214V20.7468C46.4664 24.1078 47.2923 26.59 48.9441 28.1935C50.596 29.7969 53.0414 30.5986 56.2803 30.5986C57.2196 30.5986 58.2884 30.4906 59.4869 30.2746C60.6853 30.0281 61.8027 29.5347 62.8392 28.7945C63.908 28.0544 64.7987 27.0061 65.5113 25.6493C66.2562 24.2925 66.6287 22.4887 66.6287 20.2377C66.6287 17.8017 66.6139 15.7204 66.5843 13.9936C66.5843 12.236 66.5695 10.7405 66.5399 9.50706C66.5399 8.24282 66.525 7.16358 66.4954 6.26933C66.4658 5.37514 66.4335 4.55801 66.3985 3.81795C66.3689 3.13955 66.1908 2.67702 65.8644 2.43037C65.5403 2.18387 65.2164 1.98334 64.8927 1.82876L64.9372 1.59782C65.2933 1.65928 65.6981 1.72104 66.1517 1.78311C66.605 1.81131 67.0261 1.82541 67.415 1.82541C67.771 1.82541 68.1759 1.81131 68.6295 1.78311C69.1153 1.72165 69.5364 1.65989 69.8928 1.59782L69.9234 1.82908ZM105.178 10.2934L104.886 10.3855C103.752 8.04204 102.133 6.17651 100.028 4.78893C97.9547 3.40133 95.3474 2.70752 92.2057 2.70752C90.4566 2.70752 88.7885 3.06211 87.2014 3.77129C85.6143 4.44972 84.2216 5.42104 83.0232 6.68525C81.8572 7.91865 80.9179 9.41416 80.2053 11.1718C79.4928 12.9294 79.1365 14.8721 79.1365 16.9997C79.1365 19.1273 79.4928 21.0699 80.2054 22.8275C80.918 24.5851 81.8573 26.096 83.0233 27.3603C84.2217 28.5937 85.6144 29.5496 87.2015 30.228C88.7886 30.9063 90.4566 31.2455 92.2057 31.2455C95.3151 31.2455 97.8414 30.783 99.7848 29.8579C101.761 28.9021 103.429 27.4528 104.789 25.5102L105.08 25.6024L104.984 28.5626C104.239 29.3026 103.38 29.9656 102.409 30.5514C101.437 31.1064 100.384 31.5844 99.2505 31.9853C98.1493 32.3553 96.9995 32.6328 95.8011 32.8178C94.6027 33.0338 93.4043 33.1419 92.2059 33.1419C89.7119 33.1419 87.3313 32.7564 85.0641 31.9855C82.7968 31.2146 80.8048 30.1354 79.0882 28.7478C77.3715 27.3294 76.0112 25.6335 75.0072 23.66C74.0031 21.6557 73.501 19.4356 73.501 16.9996C73.501 14.5636 74.0031 12.3589 75.0072 10.3855C76.0112 8.38112 77.3715 6.66976 79.0882 5.25138C80.8048 3.83294 82.7968 2.7537 85.0641 2.01365C87.3313 1.24275 89.7119 0.8573 92.2059 0.8573C93.4043 0.8573 94.6027 0.949805 95.8011 1.13482C96.9995 1.31983 98.1493 1.61277 99.2505 2.01365C100.384 2.38368 101.437 2.86163 102.409 3.44753C103.38 4.00256 104.239 4.65009 104.983 5.39013L105.178 10.2934ZM156.437 32.356C156.275 32.3278 156 32.297 155.611 32.2638C155.255 32.2638 154.867 32.2497 154.445 32.2215C154.024 32.2215 153.619 32.2074 153.231 32.1792H150.316C149.927 32.2074 149.539 32.2381 149.15 32.2714C148.794 32.2996 148.519 32.3303 148.324 32.3635L148.28 32.1782C148.604 32.0242 148.928 31.8237 149.252 31.5766C149.576 31.3302 149.754 30.8676 149.786 30.1891C149.815 29.449 149.83 28.6782 149.83 27.8764C149.86 27.0747 149.875 26.165 149.875 25.1475V21.6785V17.007V12.3355V8.82025C149.875 7.80269 149.86 6.90846 149.83 6.13756C149.83 5.33585 149.815 4.56497 149.786 3.82493C149.756 3.14653 149.578 2.68401 149.252 2.43735C148.927 2.15984 148.604 1.94407 148.28 1.79005L148.324 1.6048C148.519 1.66626 148.794 1.71251 149.15 1.74356C149.539 1.74356 149.927 1.75766 150.316 1.78586C150.737 1.81406 151.142 1.82817 151.531 1.82817H153.231C153.619 1.79996 154.024 1.78586 154.445 1.78586C154.867 1.75766 155.255 1.72693 155.611 1.69368C156 1.66548 156.275 1.63475 156.437 1.60149L156.481 1.78682C156.125 1.94081 155.785 2.15656 155.461 2.43408C155.17 2.68057 155.008 3.1431 154.975 3.82166C154.945 4.5617 154.913 5.33257 154.878 6.13429V27.8732C154.908 28.6749 154.94 29.4458 154.975 30.1858C155.005 30.8642 155.167 31.3267 155.461 31.5734C155.785 31.8199 156.125 32.0204 156.481 32.1749L156.437 32.356Z" fill="white"/>
</svg>
